# xmcd CD database file
#
# Track frame offsets:
#	187
#	8787
#	24724
#	42962
#	61087
#	81999
#	100024
#	118399
#	139574
#	156899
#	175087
#
# Disc length: 2580 seconds
#
# Revision: 2
# Processed by: cddbd v1.5.2PL0 Copyright (c) Steve Scherf et al.
# Submitted via: CDex 1.70beta3
#
DISCID=870a120b
DTITLE=杉本竜一 - Tomorrow
DYEAR=1993
DGENRE=Blues
TTITLE0=生命の息吹(オープニング・テーマ)
TTITLE1=銀羽の紋様
TTITLE2=春風に誘われて
TTITLE3=瞳の奥に
TTITLE4=光と影
TTITLE5=陽だまりの中で
TTITLE6=鳥になって
TTITLE7=森の子守唄
TTITLE8=郷愁
TTITLE9=神様の贈り物
TTITLE10=Tomorrow(イーメジ・ソング)
EXTD=YEAR: 1993
EXTT0=
EXTT1=
EXTT2=
EXTT3=
EXTT4=
EXTT5=
EXTT6=
EXTT7=
EXTT8=
EXTT9=
EXTT10=
PLAYORDER=
